<?xml version="1.0" encoding="UTF-8"?>
<svg width="103.75mm" height="72.827mm" version="1.1" viewBox="0 0 197.13 138.37" xmlns="http://www.w3.org/2000/svg">
 <defs>
  <marker id="Arrow2Lend" overflow="visible" orient="auto">
   <path transform="matrix(-1.1,0,0,-1.1,-1.1,0)" d="m8.7186 4.0337-10.926-4.0177 10.926-4.0177c-1.7455 2.3721-1.7354 5.6175-6e-7 8.0354z" fill-rule="evenodd" stroke="#000" stroke-linejoin="round" stroke-width=".625"/>
  </marker>
  <marker id="Arrow2Lstart" overflow="visible" orient="auto">
   <path transform="matrix(1.1,0,0,1.1,1.1,0)" d="m8.7186 4.0337-10.926-4.0177 10.926-4.0177c-1.7455 2.3721-1.7354 5.6175-6e-7 8.0354z" fill-rule="evenodd" stroke="#000" stroke-linejoin="round" stroke-width=".625"/>
  </marker>
  <marker id="Arrow2Lstart-5" overflow="visible" orient="auto">
   <path transform="matrix(1.1,0,0,1.1,1.1,0)" d="m8.7186 4.0337-10.926-4.0177 10.926-4.0177c-1.7455 2.3721-1.7354 5.6175-6e-7 8.0354z" fill-rule="evenodd" stroke="#000" stroke-linejoin="round" stroke-width=".625"/>
  </marker>
  <marker id="Arrow2Lend-2" overflow="visible" orient="auto">
   <path transform="matrix(-1.1,0,0,-1.1,-1.1,0)" d="m8.7186 4.0337-10.926-4.0177 10.926-4.0177c-1.7455 2.3721-1.7354 5.6175-6e-7 8.0354z" fill-rule="evenodd" stroke="#000" stroke-linejoin="round" stroke-width=".625"/>
  </marker>
 </defs>
 <g transform="translate(-7.8241 -105.64)">
  <g stroke="#000">
   <path d="m8.0131 105.83h88.824v120.95h-88.824z" fill="#fff" stroke-width=".378"/>
   <path d="m24.718 113.91h68.081c0.8555 0 1.5442 0.68872 1.5442 1.5442v18.313c0 0.8555-0.68872 1.5442-1.5442 1.5442h-68.081c-0.8555 0-1.5442-0.68872-1.5442-1.5442v-18.313c0-0.8555 0.68872-1.5442 1.5442-1.5442z" fill="#fff" stroke-width=".25373"/>
   <path d="m55.336 116.79h34.774v15.875h-34.774z" fill="#2a7fff" stroke-width=".378"/>
  </g>
  <g transform="translate(14.665 -33.186)" fill="#fff" style="font-variant-caps:normal;font-variant-east-asian:normal;font-variant-ligatures:normal;font-variant-numeric:normal;shape-inside:url(#rect958);white-space:pre" aria-label="buffer">
   <path d="m45.674 161.22h-0.80546v-7.0707h0.86816v2.5225q0.54984-0.68971 1.4035-0.68971 0.47267 0 0.89228 0.19292 0.42444 0.18811 0.69453 0.53537 0.27492 0.34245 0.42926 0.82958 0.15434 0.48714 0.15434 1.0418 0 1.3167-0.65112 2.0354t-1.5627 0.71865q-0.90675 0-1.4228-0.75723zm-0.0096-2.5997q0 0.92122 0.2508 1.3312 0.40997 0.67041 1.1093 0.67041 0.56913 0 0.98392-0.49196 0.41479-0.49678 0.41479-1.4759 0-1.0032-0.40032-1.4807-0.3955-0.47749-0.9598-0.47749-0.56913 0-0.98392 0.49679-0.41479 0.49196-0.41479 1.4276z" style="font-variant-caps:normal;font-variant-east-asian:normal;font-variant-ligatures:normal;font-variant-numeric:normal"/>
   <path d="m53.729 161.22v-0.75241q-0.59807 0.86817-1.6254 0.86817-0.45338 0-0.84887-0.17363-0.39067-0.17364-0.5836-0.43409-0.1881-0.26527-0.26527-0.6463-0.05306-0.25562-0.05306-0.81028v-3.1736h0.86816v2.8408q0 0.68006 0.05306 0.9164 0.08199 0.34244 0.34727 0.54019 0.26527 0.19292 0.65595 0.19292t0.73312-0.19775q0.34244-0.20257 0.48231-0.54501 0.14469-0.34727 0.14469-1.0032v-2.7444h0.86816v5.1222z" style="font-variant-caps:normal;font-variant-east-asian:normal;font-variant-ligatures:normal;font-variant-numeric:normal"/>
   <path d="m56.078 161.22v-4.4469h-0.76688v-0.67524h0.76688v-0.54501q0-0.51607 0.09164-0.76688 0.1254-0.33762 0.4389-0.54501 0.31833-0.21222 0.88746-0.21222 0.36656 0 0.81029 0.0868l-0.13022 0.75723q-0.2701-0.0482-0.51125-0.0482-0.3955 0-0.55948 0.16881-0.16399 0.16881-0.16399 0.63183v0.47266h0.99839v0.67524h-0.99839v4.4469z" style="font-variant-caps:normal;font-variant-east-asian:normal;font-variant-ligatures:normal;font-variant-numeric:normal"/>
   <path d="m58.644 161.22v-4.4469h-0.76688v-0.67524h0.76688v-0.54501q0-0.51607 0.09164-0.76688 0.1254-0.33762 0.4389-0.54501 0.31833-0.21222 0.88746-0.21222 0.36656 0 0.81029 0.0868l-0.13022 0.75723q-0.2701-0.0482-0.51125-0.0482-0.3955 0-0.55948 0.16881-0.16399 0.16881-0.16399 0.63183v0.47266h0.99839v0.67524h-0.99839v4.4469z" style="font-variant-caps:normal;font-variant-east-asian:normal;font-variant-ligatures:normal;font-variant-numeric:normal"/>
   <path d="m64.682 159.57 0.8971 0.11093q-0.21222 0.78617-0.78617 1.2203-0.57395 0.43408-1.4662 0.43408-1.1238 0-1.7846-0.68971-0.65595-0.69453-0.65595-1.9437 0-1.2926 0.66559-2.0064 0.66559-0.71382 1.7267-0.71382 1.0273 0 1.6785 0.69935 0.65112 0.69936 0.65112 1.9678 0 0.0772-0.0048 0.23151h-3.8199q0.04823 0.84405 0.47749 1.2926 0.42926 0.44855 1.0707 0.44855 0.47749 0 0.81511-0.2508 0.33762-0.2508 0.53537-0.80064zm-2.8505-1.4035h2.8601q-0.05788-0.6463-0.32797-0.96945-0.41479-0.50161-1.0756-0.50161-0.59807 0-1.008 0.40032-0.40514 0.40032-0.44855 1.0707z" style="font-variant-caps:normal;font-variant-east-asian:normal;font-variant-ligatures:normal;font-variant-numeric:normal"/>
   <path d="m66.665 161.22v-5.1222h0.78135v0.77653q0.29904-0.54501 0.54984-0.71865 0.25563-0.17363 0.55948-0.17363 0.4389 0 0.89228 0.27974l-0.29903 0.80546q-0.31833-0.1881-0.63665-0.1881-0.28456 0-0.51125 0.17364-0.22669 0.1688-0.32315 0.47266-0.14469 0.46302-0.14469 1.0129v2.6817z" style="font-variant-caps:normal;font-variant-east-asian:normal;font-variant-ligatures:normal;font-variant-numeric:normal"/>
  </g>
  <g stroke="#000">
   <path d="m14.419 139.08h77.147c2.2678 0 4.0935 1.8257 4.0935 4.0935v48.546c0 2.2678-1.8257 4.0935-4.0935 4.0935h-77.147c-2.2678 0-4.0935-1.8257-4.0935-4.0935v-48.546c0-2.2678 1.8257-4.0935 4.0935-4.0935z" fill="#fca" stroke-width=".45236"/>
   <path d="m24.718 142.24h68.081c0.8555 0 1.5442 0.68872 1.5442 1.5442v18.313c0 0.8555-0.68872 1.5442-1.5442 1.5442h-68.081c-0.8555 0-1.5442-0.68872-1.5442-1.5442v-18.313c0-0.8555 0.68872-1.5442 1.5442-1.5442z" fill="#fff" stroke-width=".25373"/>
   <path d="m55.336 145.14h34.774v15.875h-34.774z" fill="#2a7fff" stroke-width=".378"/>
  </g>
  <g transform="translate(14.665 -4.8381)" fill="#fff" style="font-variant-caps:normal;font-variant-east-asian:normal;font-variant-ligatures:normal;font-variant-numeric:normal;shape-inside:url(#rect958-0);white-space:pre" aria-label="buffer">
   <path d="m45.674 161.22h-0.80546v-7.0707h0.86816v2.5225q0.54984-0.68971 1.4035-0.68971 0.47267 0 0.89228 0.19292 0.42444 0.18811 0.69453 0.53537 0.27492 0.34245 0.42926 0.82958 0.15434 0.48714 0.15434 1.0418 0 1.3167-0.65112 2.0354t-1.5627 0.71865q-0.90675 0-1.4228-0.75723zm-0.0096-2.5997q0 0.92122 0.2508 1.3312 0.40997 0.67041 1.1093 0.67041 0.56913 0 0.98392-0.49196 0.41479-0.49678 0.41479-1.4759 0-1.0032-0.40032-1.4807-0.3955-0.47749-0.9598-0.47749-0.56913 0-0.98392 0.49679-0.41479 0.49196-0.41479 1.4276z" style="font-variant-caps:normal;font-variant-east-asian:normal;font-variant-ligatures:normal;font-variant-numeric:normal"/>
   <path d="m53.729 161.22v-0.75241q-0.59807 0.86817-1.6254 0.86817-0.45338 0-0.84887-0.17363-0.39067-0.17364-0.5836-0.43409-0.1881-0.26527-0.26527-0.6463-0.05306-0.25562-0.05306-0.81028v-3.1736h0.86816v2.8408q0 0.68006 0.05306 0.9164 0.08199 0.34244 0.34727 0.54019 0.26527 0.19292 0.65595 0.19292t0.73312-0.19775q0.34244-0.20257 0.48231-0.54501 0.14469-0.34727 0.14469-1.0032v-2.7444h0.86816v5.1222z" style="font-variant-caps:normal;font-variant-east-asian:normal;font-variant-ligatures:normal;font-variant-numeric:normal"/>
   <path d="m56.078 161.22v-4.4469h-0.76688v-0.67524h0.76688v-0.54501q0-0.51607 0.09164-0.76688 0.1254-0.33762 0.4389-0.54501 0.31833-0.21222 0.88746-0.21222 0.36656 0 0.81029 0.0868l-0.13022 0.75723q-0.2701-0.0482-0.51125-0.0482-0.3955 0-0.55948 0.16881-0.16399 0.16881-0.16399 0.63183v0.47266h0.99839v0.67524h-0.99839v4.4469z" style="font-variant-caps:normal;font-variant-east-asian:normal;font-variant-ligatures:normal;font-variant-numeric:normal"/>
   <path d="m58.644 161.22v-4.4469h-0.76688v-0.67524h0.76688v-0.54501q0-0.51607 0.09164-0.76688 0.1254-0.33762 0.4389-0.54501 0.31833-0.21222 0.88746-0.21222 0.36656 0 0.81029 0.0868l-0.13022 0.75723q-0.2701-0.0482-0.51125-0.0482-0.3955 0-0.55948 0.16881-0.16399 0.16881-0.16399 0.63183v0.47266h0.99839v0.67524h-0.99839v4.4469z" style="font-variant-caps:normal;font-variant-east-asian:normal;font-variant-ligatures:normal;font-variant-numeric:normal"/>
   <path d="m64.682 159.57 0.8971 0.11093q-0.21222 0.78617-0.78617 1.2203-0.57395 0.43408-1.4662 0.43408-1.1238 0-1.7846-0.68971-0.65595-0.69453-0.65595-1.9437 0-1.2926 0.66559-2.0064 0.66559-0.71382 1.7267-0.71382 1.0273 0 1.6785 0.69935 0.65112 0.69936 0.65112 1.9678 0 0.0772-0.0048 0.23151h-3.8199q0.04823 0.84405 0.47749 1.2926 0.42926 0.44855 1.0707 0.44855 0.47749 0 0.81511-0.2508 0.33762-0.2508 0.53537-0.80064zm-2.8505-1.4035h2.8601q-0.05788-0.6463-0.32797-0.96945-0.41479-0.50161-1.0756-0.50161-0.59807 0-1.008 0.40032-0.40514 0.40032-0.44855 1.0707z" style="font-variant-caps:normal;font-variant-east-asian:normal;font-variant-ligatures:normal;font-variant-numeric:normal"/>
   <path d="m66.665 161.22v-5.1222h0.78135v0.77653q0.29904-0.54501 0.54984-0.71865 0.25563-0.17363 0.55948-0.17363 0.4389 0 0.89228 0.27974l-0.29903 0.80546q-0.31833-0.1881-0.63665-0.1881-0.28456 0-0.51125 0.17364-0.22669 0.1688-0.32315 0.47266-0.14469 0.46302-0.14469 1.0129v2.6817z" style="font-variant-caps:normal;font-variant-east-asian:normal;font-variant-ligatures:normal;font-variant-numeric:normal"/>
  </g>
  <path d="m24.718 170.57h68.081c0.8555 0 1.5442 0.68872 1.5442 1.5442v18.313c0 0.8555-0.68872 1.5442-1.5442 1.5442h-68.081c-0.8555 0-1.5442-0.68872-1.5442-1.5442v-18.313c0-0.85549 0.68872-1.5442 1.5442-1.5442z" fill="#fff" stroke="#000" stroke-width=".25373"/>
  <path d="m55.336 173.49h34.774v15.875h-34.774z" fill="#2a7fff" stroke="#000" stroke-width=".378"/>
  <g transform="translate(14.665 23.51)" fill="#fff" style="font-variant-caps:normal;font-variant-east-asian:normal;font-variant-ligatures:normal;font-variant-numeric:normal;shape-inside:url(#rect958-4);white-space:pre" aria-label="buffer">
   <path d="m45.674 161.22h-0.80546v-7.0707h0.86816v2.5225q0.54984-0.68971 1.4035-0.68971 0.47267 0 0.89228 0.19292 0.42444 0.18811 0.69453 0.53537 0.27492 0.34245 0.42926 0.82958 0.15434 0.48714 0.15434 1.0418 0 1.3167-0.65112 2.0354t-1.5627 0.71865q-0.90675 0-1.4228-0.75723zm-0.0096-2.5997q0 0.92122 0.2508 1.3312 0.40997 0.67041 1.1093 0.67041 0.56913 0 0.98392-0.49196 0.41479-0.49678 0.41479-1.4759 0-1.0032-0.40032-1.4807-0.3955-0.47749-0.9598-0.47749-0.56913 0-0.98392 0.49679-0.41479 0.49196-0.41479 1.4276z" style="font-variant-caps:normal;font-variant-east-asian:normal;font-variant-ligatures:normal;font-variant-numeric:normal"/>
   <path d="m53.729 161.22v-0.75241q-0.59807 0.86817-1.6254 0.86817-0.45338 0-0.84887-0.17363-0.39067-0.17364-0.5836-0.43409-0.1881-0.26527-0.26527-0.6463-0.05306-0.25562-0.05306-0.81028v-3.1736h0.86816v2.8408q0 0.68006 0.05306 0.9164 0.08199 0.34244 0.34727 0.54019 0.26527 0.19292 0.65595 0.19292t0.73312-0.19775q0.34244-0.20257 0.48231-0.54501 0.14469-0.34727 0.14469-1.0032v-2.7444h0.86816v5.1222z" style="font-variant-caps:normal;font-variant-east-asian:normal;font-variant-ligatures:normal;font-variant-numeric:normal"/>
   <path d="m56.078 161.22v-4.4469h-0.76688v-0.67524h0.76688v-0.54501q0-0.51607 0.09164-0.76688 0.1254-0.33762 0.4389-0.54501 0.31833-0.21222 0.88746-0.21222 0.36656 0 0.81029 0.0868l-0.13022 0.75723q-0.2701-0.0482-0.51125-0.0482-0.3955 0-0.55948 0.16881-0.16399 0.16881-0.16399 0.63183v0.47266h0.99839v0.67524h-0.99839v4.4469z" style="font-variant-caps:normal;font-variant-east-asian:normal;font-variant-ligatures:normal;font-variant-numeric:normal"/>
   <path d="m58.644 161.22v-4.4469h-0.76688v-0.67524h0.76688v-0.54501q0-0.51607 0.09164-0.76688 0.1254-0.33762 0.4389-0.54501 0.31833-0.21222 0.88746-0.21222 0.36656 0 0.81029 0.0868l-0.13022 0.75723q-0.2701-0.0482-0.51125-0.0482-0.3955 0-0.55948 0.16881-0.16399 0.16881-0.16399 0.63183v0.47266h0.99839v0.67524h-0.99839v4.4469z" style="font-variant-caps:normal;font-variant-east-asian:normal;font-variant-ligatures:normal;font-variant-numeric:normal"/>
   <path d="m64.682 159.57 0.8971 0.11093q-0.21222 0.78617-0.78617 1.2203-0.57395 0.43408-1.4662 0.43408-1.1238 0-1.7846-0.68971-0.65595-0.69453-0.65595-1.9437 0-1.2926 0.66559-2.0064 0.66559-0.71382 1.7267-0.71382 1.0273 0 1.6785 0.69935 0.65112 0.69936 0.65112 1.9678 0 0.0772-0.0048 0.23151h-3.8199q0.04823 0.84405 0.47749 1.2926 0.42926 0.44855 1.0707 0.44855 0.47749 0 0.81511-0.2508 0.33762-0.2508 0.53537-0.80064zm-2.8505-1.4035h2.8601q-0.05788-0.6463-0.32797-0.96945-0.41479-0.50161-1.0756-0.50161-0.59807 0-1.008 0.40032-0.40514 0.40032-0.44855 1.0707z" style="font-variant-caps:normal;font-variant-east-asian:normal;font-variant-ligatures:normal;font-variant-numeric:normal"/>
   <path d="m66.665 161.22v-5.1222h0.78135v0.77653q0.29904-0.54501 0.54984-0.71865 0.25563-0.17363 0.55948-0.17363 0.4389 0 0.89228 0.27974l-0.29903 0.80546q-0.31833-0.1881-0.63665-0.1881-0.28456 0-0.51125 0.17364-0.22669 0.1688-0.32315 0.47266-0.14469 0.46302-0.14469 1.0129v2.6817z" style="font-variant-caps:normal;font-variant-east-asian:normal;font-variant-ligatures:normal;font-variant-numeric:normal"/>
  </g>
  <path d="m24.718 198.89h68.081c0.8555 0 1.5442 0.68872 1.5442 1.5442v18.313c0 0.8555-0.68872 1.5442-1.5442 1.5442h-68.081c-0.8555 0-1.5442-0.68872-1.5442-1.5442v-18.313c0-0.8555 0.68872-1.5442 1.5442-1.5442z" fill="#fff" stroke="#000" stroke-width=".25373"/>
  <path d="m55.336 201.84h34.774v15.875h-34.774z" fill="#2a7fff" stroke="#000" stroke-width=".378"/>
  <g transform="translate(14.665 51.858)" fill="#fff" style="font-variant-caps:normal;font-variant-east-asian:normal;font-variant-ligatures:normal;font-variant-numeric:normal;shape-inside:url(#rect958-47);white-space:pre" aria-label="buffer">
   <path d="m45.674 161.22h-0.80546v-7.0707h0.86816v2.5225q0.54984-0.68971 1.4035-0.68971 0.47267 0 0.89228 0.19292 0.42444 0.18811 0.69453 0.53537 0.27492 0.34245 0.42926 0.82958 0.15434 0.48714 0.15434 1.0418 0 1.3167-0.65112 2.0354t-1.5627 0.71865q-0.90675 0-1.4228-0.75723zm-0.0096-2.5997q0 0.92122 0.2508 1.3312 0.40997 0.67041 1.1093 0.67041 0.56913 0 0.98392-0.49196 0.41479-0.49678 0.41479-1.4759 0-1.0032-0.40032-1.4807-0.3955-0.47749-0.9598-0.47749-0.56913 0-0.98392 0.49679-0.41479 0.49196-0.41479 1.4276z" style="font-variant-caps:normal;font-variant-east-asian:normal;font-variant-ligatures:normal;font-variant-numeric:normal"/>
   <path d="m53.729 161.22v-0.75241q-0.59807 0.86817-1.6254 0.86817-0.45338 0-0.84887-0.17363-0.39067-0.17364-0.5836-0.43409-0.1881-0.26527-0.26527-0.6463-0.05306-0.25562-0.05306-0.81028v-3.1736h0.86816v2.8408q0 0.68006 0.05306 0.9164 0.08199 0.34244 0.34727 0.54019 0.26527 0.19292 0.65595 0.19292t0.73312-0.19775q0.34244-0.20257 0.48231-0.54501 0.14469-0.34727 0.14469-1.0032v-2.7444h0.86816v5.1222z" style="font-variant-caps:normal;font-variant-east-asian:normal;font-variant-ligatures:normal;font-variant-numeric:normal"/>
   <path d="m56.078 161.22v-4.4469h-0.76688v-0.67524h0.76688v-0.54501q0-0.51607 0.09164-0.76688 0.1254-0.33762 0.4389-0.54501 0.31833-0.21222 0.88746-0.21222 0.36656 0 0.81029 0.0868l-0.13022 0.75723q-0.2701-0.0482-0.51125-0.0482-0.3955 0-0.55948 0.16881-0.16399 0.16881-0.16399 0.63183v0.47266h0.99839v0.67524h-0.99839v4.4469z" style="font-variant-caps:normal;font-variant-east-asian:normal;font-variant-ligatures:normal;font-variant-numeric:normal"/>
   <path d="m58.644 161.22v-4.4469h-0.76688v-0.67524h0.76688v-0.54501q0-0.51607 0.09164-0.76688 0.1254-0.33762 0.4389-0.54501 0.31833-0.21222 0.88746-0.21222 0.36656 0 0.81029 0.0868l-0.13022 0.75723q-0.2701-0.0482-0.51125-0.0482-0.3955 0-0.55948 0.16881-0.16399 0.16881-0.16399 0.63183v0.47266h0.99839v0.67524h-0.99839v4.4469z" style="font-variant-caps:normal;font-variant-east-asian:normal;font-variant-ligatures:normal;font-variant-numeric:normal"/>
   <path d="m64.682 159.57 0.8971 0.11093q-0.21222 0.78617-0.78617 1.2203-0.57395 0.43408-1.4662 0.43408-1.1238 0-1.7846-0.68971-0.65595-0.69453-0.65595-1.9437 0-1.2926 0.66559-2.0064 0.66559-0.71382 1.7267-0.71382 1.0273 0 1.6785 0.69935 0.65112 0.69936 0.65112 1.9678 0 0.0772-0.0048 0.23151h-3.8199q0.04823 0.84405 0.47749 1.2926 0.42926 0.44855 1.0707 0.44855 0.47749 0 0.81511-0.2508 0.33762-0.2508 0.53537-0.80064zm-2.8505-1.4035h2.8601q-0.05788-0.6463-0.32797-0.96945-0.41479-0.50161-1.0756-0.50161-0.59807 0-1.008 0.40032-0.40514 0.40032-0.44855 1.0707z" style="font-variant-caps:normal;font-variant-east-asian:normal;font-variant-ligatures:normal;font-variant-numeric:normal"/>
   <path d="m66.665 161.22v-5.1222h0.78135v0.77653q0.29904-0.54501 0.54984-0.71865 0.25563-0.17363 0.55948-0.17363 0.4389 0 0.89228 0.27974l-0.29903 0.80546q-0.31833-0.1881-0.63665-0.1881-0.28456 0-0.51125 0.17364-0.22669 0.1688-0.32315 0.47266-0.14469 0.46302-0.14469 1.0129v2.6817z" style="font-variant-caps:normal;font-variant-east-asian:normal;font-variant-ligatures:normal;font-variant-numeric:normal"/>
  </g>
  <g>
   <g transform="translate(-3.7042)" stroke-width=".265" style="font-variant-caps:normal;font-variant-east-asian:normal;font-variant-ligatures:normal;font-variant-numeric:normal" aria-label="TCP/IP">
    <path d="m35.179 150.16q0 0.0916-0.0096 0.15916-0.0096 0.0675-0.03376 0.11093-0.01929 0.0386-0.05305 0.0579-0.02894 0.0193-0.06752 0.0193h-1.7556v5.4116q0 0.0386-0.01929 0.0675t-0.06752 0.0482q-0.04823 0.0145-0.13022 0.0241-0.07717 0.0145-0.19775 0.0145-0.11576 0-0.19775-0.0145-0.08199-0.01-0.13022-0.0241-0.04823-0.0193-0.06752-0.0482t-0.01929-0.0675v-5.4116h-1.7556q-0.03858 0-0.07235-0.0193-0.02894-0.0193-0.04823-0.0579-0.01929-0.0434-0.03376-0.11093-0.0096-0.0675-0.0096-0.15916 0-0.0916 0.0096-0.15916 0.01447-0.0724 0.03376-0.11576 0.01929-0.0434 0.04823-0.0627 0.03376-0.0193 0.07235-0.0193h4.3408q0.03859 0 0.06752 0.0193 0.03376 0.0193 0.05305 0.0627 0.02412 0.0434 0.03376 0.11576 0.0096 0.0675 0.0096 0.15916z" style="font-variant-caps:normal;font-variant-east-asian:normal;font-variant-ligatures:normal;font-variant-numeric:normal"/>
    <path d="m40.065 155.16q0 0.0772-0.0048 0.13505-0.0048 0.0579-0.01929 0.10128-0.0096 0.0434-0.02894 0.0772-0.01929 0.0338-0.06752 0.082t-0.20257 0.14951q-0.15434 0.0965-0.38585 0.19293-0.22669 0.0916-0.52572 0.15434-0.29421 0.0675-0.6463 0.0675-0.60772 0-1.0997-0.20257-0.48714-0.20257-0.8344-0.59807-0.34244-0.39549-0.53054-0.97427-0.18328-0.5836-0.18328-1.3408 0-0.77653 0.19775-1.3842 0.20257-0.60772 0.56431-1.0273 0.36174-0.42443 0.86334-0.6463 0.50643-0.22186 1.119-0.22186 0.2701 0 0.52572 0.0531 0.25563 0.0482 0.47267 0.1254t0.38585 0.17846q0.16881 0.10128 0.23151 0.16881 0.06752 0.0627 0.08682 0.0965 0.01929 0.0338 0.02894 0.082 0.01447 0.0434 0.01929 0.10611 0.0096 0.0627 0.0096 0.14952 0 0.0965-0.0096 0.16399-0.0096 0.0675-0.02894 0.11575-0.01929 0.0434-0.04823 0.0675-0.02412 0.0193-0.0627 0.0193-0.06752 0-0.1881-0.0916-0.12058-0.0965-0.3135-0.2074-0.1881-0.11575-0.46302-0.20739-0.2701-0.0965-0.65112-0.0965-0.41479 0-0.75723 0.16881-0.33762 0.16398-0.57878 0.48713-0.24116 0.32315-0.3762 0.791-0.13022 0.46302-0.13022 1.0611 0 0.59324 0.1254 1.0514 0.13022 0.45338 0.36656 0.76206 0.24116 0.30385 0.58842 0.46302 0.34726 0.15434 0.78617 0.15434 0.37138 0 0.6463-0.0916 0.27974-0.0916 0.47267-0.20257 0.19775-0.11576 0.32315-0.2074 0.1254-0.0916 0.19775-0.0916 0.03376 0 0.05788 0.0145t0.03859 0.0579q0.01447 0.0386 0.01929 0.11093 0.0096 0.0724 0.0096 0.18328z" style="font-variant-caps:normal;font-variant-east-asian:normal;font-variant-ligatures:normal;font-variant-numeric:normal"/>
    <path d="m44.999 151.63q0 0.46785-0.15434 0.84405-0.15434 0.37621-0.44373 0.64148-0.28456 0.26527-0.70418 0.40997-0.41479 0.14469-0.99357 0.14469h-0.709v2.2476q0 0.0386-0.02412 0.0675-0.01929 0.0289-0.06752 0.0482-0.04341 0.0145-0.1254 0.0241-0.07717 0.0145-0.19775 0.0145-0.12058 0-0.20257-0.0145-0.07717-0.01-0.1254-0.0241-0.04823-0.0193-0.06752-0.0482t-0.01929-0.0675v-5.7588q0-0.19293 0.10129-0.27492 0.10129-0.082 0.22669-0.082h1.336q0.20257 0 0.38585 0.0193 0.1881 0.0145 0.4389 0.0724 0.25563 0.053 0.51608 0.20739 0.26527 0.14952 0.44855 0.37138 0.18328 0.22187 0.27974 0.51608 0.10129 0.28939 0.10129 0.64147zm-0.87299 0.0675q0-0.38103-0.14469-0.63665-0.13987-0.25563-0.35209-0.38103-0.2074-0.1254-0.43408-0.15917-0.22186-0.0338-0.43408-0.0338h-0.76688v2.5032h0.74759q0.3762 0 0.62218-0.0965 0.2508-0.0965 0.41961-0.26528 0.16881-0.17363 0.25563-0.40996 0.08682-0.24116 0.08682-0.5209z" style="font-variant-caps:normal;font-variant-east-asian:normal;font-variant-ligatures:normal;font-variant-numeric:normal"/>
    <path d="m45.737 157.2q-0.01929 0.0627-0.05306 0.0965-0.02894 0.0386-0.07717 0.0579t-0.12058 0.0289q-0.06752 0.01-0.16881 0.01-0.12058 0-0.20257-0.0193-0.07717-0.0145-0.12058-0.0482-0.04341-0.0289-0.05306-0.0772-0.0096-0.0434 0.01929-0.10611l2.918-8.0016q0.01929-0.0627 0.04823-0.0965 0.03376-0.0386 0.07717-0.0579 0.04823-0.0241 0.12058-0.0289 0.07235-0.01 0.17363-0.01 0.12058 0 0.19775 0.0193 0.07717 0.0145 0.12058 0.0434 0.04341 0.0289 0.05306 0.0772 0.0096 0.0482-0.01447 0.11093z" style="font-variant-caps:normal;font-variant-east-asian:normal;font-variant-ligatures:normal;font-variant-numeric:normal"/>
    <path d="m50.406 155.91q0 0.0386-0.01929 0.0675t-0.06752 0.0482q-0.04823 0.0145-0.13022 0.0241-0.07717 0.0145-0.19775 0.0145-0.11576 0-0.19775-0.0145-0.08199-0.01-0.13022-0.0241-0.04823-0.0193-0.06752-0.0482t-0.01929-0.0675v-5.9903q0-0.0386 0.01929-0.0675 0.02412-0.0289 0.07235-0.0434 0.05306-0.0193 0.13022-0.0289 0.08199-0.0145 0.19292-0.0145 0.12058 0 0.19775 0.0145 0.08199 0.01 0.13022 0.0289 0.04823 0.0145 0.06752 0.0434t0.01929 0.0675z" style="font-variant-caps:normal;font-variant-east-asian:normal;font-variant-ligatures:normal;font-variant-numeric:normal"/>
    <path d="m55.899 151.63q0 0.46785-0.15434 0.84405-0.15434 0.37621-0.44373 0.64148-0.28456 0.26527-0.70418 0.40997-0.41479 0.14469-0.99356 0.14469h-0.709v2.2476q0 0.0386-0.02412 0.0675-0.01929 0.0289-0.06752 0.0482-0.04341 0.0145-0.1254 0.0241-0.07717 0.0145-0.19775 0.0145-0.12058 0-0.20257-0.0145-0.07717-0.01-0.1254-0.0241-0.04823-0.0193-0.06752-0.0482t-0.01929-0.0675v-5.7588q0-0.19293 0.10129-0.27492 0.10128-0.082 0.22669-0.082h1.336q0.20257 0 0.38585 0.0193 0.1881 0.0145 0.4389 0.0724 0.25563 0.053 0.51608 0.20739 0.26527 0.14952 0.44855 0.37138 0.18328 0.22187 0.27974 0.51608 0.10129 0.28939 0.10129 0.64147zm-0.87299 0.0675q0-0.38103-0.14469-0.63665-0.13987-0.25563-0.35209-0.38103-0.2074-0.1254-0.43408-0.15917-0.22186-0.0338-0.43408-0.0338h-0.76688v2.5032h0.74759q0.3762 0 0.62218-0.0965 0.2508-0.0965 0.41961-0.26528 0.16881-0.17363 0.25563-0.40996 0.08682-0.24116 0.08682-0.5209z" style="font-variant-caps:normal;font-variant-east-asian:normal;font-variant-ligatures:normal;font-variant-numeric:normal"/>
   </g>
   <g transform="translate(-3.7042)" stroke-width=".265" style="font-variant-caps:normal;font-variant-east-asian:normal;font-variant-ligatures:normal;font-variant-numeric:normal" aria-label="APP">
    <path d="m35.845 127.27q0.03859 0.1061 0.03859 0.17363 0.0048 0.0627-0.03376 0.0965-0.03858 0.0338-0.13022 0.0434-0.08682 0.01-0.23633 0.01-0.14952 0-0.24116-0.01-0.08682-5e-3 -0.13505-0.0193-0.04341-0.0193-0.06752-0.0482-0.01929-0.0289-0.03859-0.0724l-0.53537-1.5193h-2.5948l-0.51125 1.5q-0.01447 0.0434-0.03859 0.0772-0.02412 0.0289-0.07235 0.053-0.04341 0.0193-0.13022 0.0289-0.08199 0.01-0.21704 0.01-0.13987 0-0.23151-0.0145-0.08682-0.01-0.1254-0.0434-0.03376-0.0338-0.03376-0.0965 0.0048-0.0675 0.04341-0.17364l2.0932-5.7974q0.01929-0.053 0.04823-0.0868 0.03376-0.0338 0.09164-0.053 0.0627-0.0193 0.15434-0.0241 0.09646-0.01 0.24116-0.01 0.15434 0 0.25563 0.01 0.10129 5e-3 0.16399 0.0241 0.0627 0.0193 0.09646 0.0579 0.03376 0.0338 0.05306 0.0868zm-2.6865-5.1174h-0.0048l-1.0756 3.1109h2.1704z" style="font-variant-caps:normal;font-variant-east-asian:normal;font-variant-ligatures:normal;font-variant-numeric:normal"/>
    <path d="m40.716 123.15q0 0.46785-0.15434 0.84405-0.15434 0.3762-0.44373 0.64148-0.28456 0.26527-0.70418 0.40996-0.41479 0.1447-0.99356 0.1447h-0.709v2.2476q0 0.0386-0.02412 0.0675-0.01929 0.0289-0.06752 0.0482-0.04341 0.0145-0.1254 0.0241-0.07717 0.0145-0.19775 0.0145-0.12058 0-0.20257-0.0145-0.07717-0.01-0.1254-0.0241-0.04823-0.0193-0.06752-0.0482t-0.01929-0.0675v-5.7588q0-0.19293 0.10129-0.27492 0.10129-0.082 0.22669-0.082h1.336q0.20257 0 0.38585 0.0193 0.1881 0.0145 0.4389 0.0724 0.25563 0.053 0.51608 0.20739 0.26527 0.14952 0.44855 0.37138 0.18328 0.22187 0.27974 0.51608 0.10129 0.28938 0.10129 0.64147zm-0.87299 0.0675q0-0.38103-0.14469-0.63666-0.13987-0.25562-0.35209-0.38102-0.2074-0.12541-0.43408-0.15917-0.22186-0.0338-0.43408-0.0338h-0.76688v2.5032h0.74758q0.3762 0 0.62218-0.0965 0.2508-0.0965 0.41961-0.26527 0.16881-0.17363 0.25563-0.40997 0.08682-0.24115 0.08682-0.52089z" style="font-variant-caps:normal;font-variant-east-asian:normal;font-variant-ligatures:normal;font-variant-numeric:normal"/>
    <path d="m45.829 123.15q0 0.46785-0.15434 0.84405t-0.44373 0.64148q-0.28456 0.26527-0.70418 0.40996-0.41479 0.1447-0.99356 0.1447h-0.709v2.2476q0 0.0386-0.02412 0.0675-0.01929 0.0289-0.06752 0.0482-0.04341 0.0145-0.1254 0.0241-0.07717 0.0145-0.19775 0.0145-0.12058 0-0.20257-0.0145-0.07717-0.01-0.1254-0.0241-0.04823-0.0193-0.06752-0.0482t-0.01929-0.0675v-5.7588q0-0.19293 0.10129-0.27492 0.10128-0.082 0.22669-0.082h1.336q0.20257 0 0.38585 0.0193 0.1881 0.0145 0.4389 0.0724 0.25563 0.053 0.51608 0.20739 0.26527 0.14952 0.44855 0.37138 0.18328 0.22187 0.27974 0.51608 0.10128 0.28938 0.10128 0.64147zm-0.87299 0.0675q0-0.38103-0.14469-0.63666-0.13987-0.25562-0.35209-0.38102-0.20739-0.12541-0.43408-0.15917-0.22186-0.0338-0.43408-0.0338h-0.76688v2.5032h0.74759q0.3762 0 0.62218-0.0965 0.2508-0.0965 0.41961-0.26527 0.16881-0.17363 0.25563-0.40997 0.08682-0.24115 0.08682-0.52089z" style="font-variant-caps:normal;font-variant-east-asian:normal;font-variant-ligatures:normal;font-variant-numeric:normal"/>
   </g>
   <g transform="translate(-3.7042)" stroke-width=".265" style="font-variant-caps:normal;font-variant-east-asian:normal;font-variant-ligatures:normal;font-variant-numeric:normal" aria-label="Driver">
    <path d="m35.309 181.84q0 0.81028-0.2074 1.418-0.20739 0.60289-0.60771 1.0032-0.3955 0.39549-0.97427 0.59324-0.57878 0.19775-1.3794 0.19775h-1.3215q-0.11093 0-0.21222-0.0724-0.09646-0.0772-0.09646-0.26527v-5.5659q0-0.1881 0.09646-0.26045 0.10129-0.0772 0.21222-0.0772h1.4132q0.81029 0 1.3698 0.21222 0.55948 0.20739 0.93569 0.60289 0.38103 0.39067 0.57395 0.95016 0.19775 0.55948 0.19775 1.2637zm-0.87299 0.0338q0-0.50643-0.1254-0.94051-0.1254-0.43891-0.3955-0.75723-0.26527-0.31833-0.67524-0.49679-0.40997-0.17845-1.0563-0.17845h-0.84405v4.8569h0.85369q0.59807 0 1.008-0.14952 0.40997-0.14951 0.68488-0.45819 0.27492-0.30868 0.40997-0.7717 0.13987-0.46785 0.13987-1.1045z" style="font-variant-caps:normal;font-variant-east-asian:normal;font-variant-ligatures:normal;font-variant-numeric:normal"/>
    <path d="m39.033 180.88q0 0.10611-0.0048 0.17846-0.0048 0.0723-0.01929 0.11575-0.01447 0.0386-0.03859 0.0627-0.01929 0.0193-0.05788 0.0193t-0.09646-0.0193q-0.05306-0.0241-0.1254-0.0434-0.06752-0.0241-0.15434-0.0434t-0.1881-0.0193q-0.12058 0-0.23633 0.0482t-0.24598 0.15916q-0.1254 0.11093-0.26527 0.29421t-0.30868 0.44855v2.8553q0 0.0386-0.01929 0.0675-0.01929 0.0241-0.0627 0.0434t-0.12058 0.0289q-0.07717 0.01-0.19775 0.01-0.11576 0-0.19292-0.01t-0.1254-0.0289q-0.04341-0.0193-0.0627-0.0434-0.01447-0.0289-0.01447-0.0675v-4.3408q0-0.0386 0.01447-0.0627 0.01447-0.0289 0.05788-0.0482 0.04341-0.0241 0.11093-0.0289 0.06752-0.01 0.17846-0.01 0.10611 0 0.17363 0.01 0.07235 5e-3 0.11093 0.0289 0.03858 0.0193 0.05305 0.0482 0.01929 0.0241 0.01929 0.0627v0.63183q0.17846-0.26045 0.3328-0.42444 0.15916-0.16399 0.29903-0.25563 0.13987-0.0965 0.27492-0.13022 0.13987-0.0386 0.27974-0.0386 0.0627 0 0.13987 0.01 0.08199 5e-3 0.16881 0.0241 0.08682 0.0193 0.15434 0.0434 0.07235 0.0241 0.10129 0.0482 0.02894 0.0241 0.03858 0.0482 0.0096 0.0193 0.01447 0.053 0.0096 0.0338 0.0096 0.10129 0.0048 0.0627 0.0048 0.17363z" style="font-variant-caps:normal;font-variant-east-asian:normal;font-variant-ligatures:normal;font-variant-numeric:normal"/>
    <path d="m40.745 184.93q0 0.0386-0.01929 0.0675-0.01929 0.0241-0.0627 0.0434t-0.12058 0.0289q-0.07717 0.01-0.19775 0.01-0.11576 0-0.19292-0.01t-0.1254-0.0289q-0.04341-0.0193-0.0627-0.0434-0.01447-0.0289-0.01447-0.0675v-4.3408q0-0.0338 0.01447-0.0627 0.01929-0.0289 0.0627-0.0482 0.04823-0.0193 0.1254-0.0289 0.07717-0.01 0.19292-0.01 0.12058 0 0.19775 0.01t0.12058 0.0289q0.04341 0.0193 0.0627 0.0482t0.01929 0.0627zm0.09164-5.807q0 0.27975-0.10611 0.38103-0.10611 0.10129-0.39067 0.10129-0.27974 0-0.38585-0.0965-0.10128-0.10129-0.10128-0.37621 0-0.27974 0.10611-0.38103 0.10611-0.10128 0.39067-0.10128 0.27974 0 0.38103 0.10128 0.10611 0.0965 0.10611 0.37138z" style="font-variant-caps:normal;font-variant-east-asian:normal;font-variant-ligatures:normal;font-variant-numeric:normal"/>
    <path d="m45.785 180.58q0 0.0193-0.0048 0.0434 0 0.0193-0.0048 0.0434t-0.01447 0.0531q-0.0048 0.0289-0.01447 0.0627l-1.4807 4.1238q-0.01929 0.0531-0.05305 0.0868-0.02894 0.0338-0.09164 0.0531t-0.15916 0.0241q-0.09646 0.01-0.24116 0.01-0.14469 0-0.24116-0.01-0.09646-0.01-0.15916-0.0289-0.05788-0.0193-0.09164-0.0531t-0.05305-0.082l-1.4759-4.1238q-0.01929-0.0579-0.03376-0.10128-0.0096-0.0434-0.01447-0.0627 0-0.0241 0-0.0386 0-0.0386 0.01929-0.0675t0.0627-0.0434q0.04823-0.0193 0.12058-0.0241 0.07717-5e-3 0.1881-5e-3 0.13987 0 0.22186 0.01 0.08682 5e-3 0.13022 0.0241 0.04823 0.0193 0.06752 0.0482 0.02411 0.0289 0.04341 0.0724l1.2251 3.5788 0.01929 0.0579 0.01447-0.0579 1.2106-3.5788q0.0096-0.0434 0.03376-0.0724 0.02412-0.0289 0.06752-0.0482 0.04823-0.0193 0.1254-0.0241 0.08199-0.01 0.21222-0.01 0.11093 0 0.18328 5e-3 0.07235 5e-3 0.11093 0.0241 0.04341 0.0193 0.05788 0.0482 0.01929 0.0241 0.01929 0.0627z" style="font-variant-caps:normal;font-variant-east-asian:normal;font-variant-ligatures:normal;font-variant-numeric:normal"/>
    <path d="m50.29 182.57q0 0.1881-0.09646 0.2701-0.09164 0.0772-0.21222 0.0772h-2.8456q0 0.36173 0.07235 0.65112t0.24116 0.49678q0.16881 0.2074 0.4389 0.31833 0.2701 0.11093 0.66077 0.11093 0.30868 0 0.54984-0.0482 0.24116-0.053 0.41479-0.11575 0.17846-0.0627 0.28939-0.11094 0.11576-0.053 0.17363-0.053 0.03376 0 0.05788 0.0193 0.02894 0.0145 0.04341 0.0482 0.01447 0.0338 0.01929 0.0965 0.0096 0.0579 0.0096 0.14469 0 0.0627-0.0048 0.11093-0.0048 0.0434-0.01447 0.082-0.0048 0.0338-0.02412 0.0627-0.01447 0.0289-0.04341 0.0579-0.02412 0.0241-0.15434 0.0868-0.13022 0.0579-0.33762 0.11575-0.2074 0.0579-0.48231 0.10129-0.2701 0.0482-0.57878 0.0482-0.53537 0-0.94051-0.14952-0.40032-0.14951-0.67524-0.44372-0.27492-0.29421-0.41479-0.73794-0.13987-0.44373-0.13987-1.0322 0-0.55949 0.14469-1.0032 0.14469-0.44855 0.41479-0.75724 0.27492-0.3135 0.66077-0.47749 0.38585-0.1688 0.86334-0.1688 0.51125 0 0.86816 0.16398 0.36174 0.16399 0.59324 0.44373 0.23151 0.27492 0.33762 0.65112 0.11093 0.37138 0.11093 0.79582zm-0.80064-0.23633q0.01447-0.62701-0.27974-0.98392-0.28939-0.35691-0.86334-0.35691-0.29421 0-0.51608 0.11093t-0.37138 0.29421-0.23151 0.42926q-0.08199 0.24116-0.09164 0.50643z" style="font-variant-caps:normal;font-variant-east-asian:normal;font-variant-ligatures:normal;font-variant-numeric:normal"/>
    <path d="m54.042 180.88q0 0.10611-0.0048 0.17846-0.0048 0.0723-0.01929 0.11575-0.01447 0.0386-0.03858 0.0627-0.01929 0.0193-0.05788 0.0193t-0.09646-0.0193q-0.05305-0.0241-0.1254-0.0434-0.06752-0.0241-0.15434-0.0434-0.08682-0.0193-0.1881-0.0193-0.12058 0-0.23633 0.0482t-0.24598 0.15916q-0.1254 0.11093-0.26527 0.29421t-0.30868 0.44855v2.8553q0 0.0386-0.01929 0.0675-0.01929 0.0241-0.0627 0.0434t-0.12058 0.0289q-0.07717 0.01-0.19775 0.01-0.11576 0-0.19292-0.01t-0.1254-0.0289q-0.04341-0.0193-0.0627-0.0434-0.01447-0.0289-0.01447-0.0675v-4.3408q0-0.0386 0.01447-0.0627 0.01447-0.0289 0.05788-0.0482 0.04341-0.0241 0.11093-0.0289 0.06752-0.01 0.17846-0.01 0.10611 0 0.17363 0.01 0.07235 5e-3 0.11093 0.0289 0.03859 0.0193 0.05305 0.0482 0.01929 0.0241 0.01929 0.0627v0.63183q0.17846-0.26045 0.3328-0.42444 0.15916-0.16399 0.29903-0.25563 0.13987-0.0965 0.27492-0.13022 0.13987-0.0386 0.27974-0.0386 0.0627 0 0.13987 0.01 0.08199 5e-3 0.16881 0.0241 0.08682 0.0193 0.15434 0.0434 0.07235 0.0241 0.10129 0.0482 0.02894 0.0241 0.03858 0.0482 0.0096 0.0193 0.01447 0.053 0.0096 0.0338 0.0096 0.10129 0.0048 0.0627 0.0048 0.17363z" style="font-variant-caps:normal;font-variant-east-asian:normal;font-variant-ligatures:normal;font-variant-numeric:normal"/>
   </g>
   <g transform="translate(-3.7042)" stroke-width=".265" style="font-variant-caps:normal;font-variant-east-asian:normal;font-variant-ligatures:normal;font-variant-numeric:normal" aria-label="NIC">
    <path d="m35.227 213.4q0 0.0965-0.03376 0.16398-0.02894 0.0675-0.08199 0.11094-0.04823 0.0434-0.11093 0.0627-0.0627 0.0193-0.1254 0.0193h-0.26527q-0.1254 0-0.22186-0.0241-0.09164-0.0289-0.17846-0.0965-0.08199-0.0724-0.16881-0.19292-0.08199-0.12058-0.18328-0.30868l-1.9678-3.5498q-0.15434-0.27492-0.3135-0.57395-0.15434-0.30386-0.28939-0.58842h-0.0096q0.0096 0.34726 0.01447 0.709 0.0048 0.36173 0.0048 0.71864v3.7669q0 0.0338-0.01929 0.0675-0.01929 0.0289-0.06752 0.0482-0.04341 0.0145-0.12058 0.0241-0.07235 0.0145-0.1881 0.0145-0.11576 0-0.19292-0.0145-0.07235-0.01-0.11576-0.0241-0.04341-0.0193-0.0627-0.0482-0.01929-0.0338-0.01929-0.0675v-5.7588q0-0.19292 0.10611-0.27492 0.10611-0.082 0.23151-0.082h0.3955q0.13987 0 0.23151 0.0241 0.09646 0.0241 0.16881 0.082 0.07717 0.0531 0.14469 0.15434 0.07235 0.0965 0.15434 0.24598l1.5145 2.7395q0.13987 0.2508 0.2701 0.49196 0.13022 0.23633 0.2508 0.46784t0.23633 0.4582q0.12058 0.22186 0.23633 0.44855h0.0048q-0.0096-0.38103-0.01447-0.791 0-0.41478 0-0.79581v-3.3858q0-0.0338 0.01929-0.0627t0.0627-0.0482q0.04823-0.0241 0.12058-0.0338 0.07717-0.01 0.19775-0.01 0.10611 0 0.18328 0.01t0.12058 0.0338q0.04341 0.0193 0.0627 0.0482t0.01929 0.0627z"/>
    <path d="m37.726 213.62q0 0.0386-0.01929 0.0675t-0.06752 0.0482q-0.04823 0.0145-0.13022 0.0241-0.07717 0.0145-0.19775 0.0145-0.11576 0-0.19775-0.0145-0.08199-0.01-0.13022-0.0241-0.04823-0.0193-0.06752-0.0482t-0.01929-0.0675v-5.9903q0-0.0386 0.01929-0.0675 0.02412-0.0289 0.07235-0.0434 0.05306-0.0193 0.13022-0.0289 0.08199-0.0145 0.19292-0.0145 0.12058 0 0.19775 0.0145 0.08199 0.01 0.13022 0.0289 0.04823 0.0145 0.06752 0.0434t0.01929 0.0675z"/>
    <path d="m43.552 212.86q0 0.0772-0.0048 0.13505-0.0048 0.0579-0.01929 0.10128-0.0096 0.0434-0.02894 0.0772-0.01929 0.0338-0.06752 0.082t-0.20257 0.14952q-0.15434 0.0965-0.38585 0.19293-0.22669 0.0916-0.52572 0.15434-0.29421 0.0675-0.6463 0.0675-0.60772 0-1.0997-0.20257-0.48714-0.20257-0.8344-0.59807-0.34244-0.3955-0.53054-0.97427-0.18328-0.5836-0.18328-1.3408 0-0.77653 0.19775-1.3842 0.20257-0.60771 0.56431-1.0273 0.36174-0.42443 0.86334-0.6463 0.50643-0.22186 1.119-0.22186 0.2701 0 0.52572 0.0531 0.25563 0.0482 0.47267 0.12541 0.21704 0.0772 0.38585 0.17845 0.16881 0.10129 0.23151 0.16881 0.06752 0.0627 0.08682 0.0965 0.01929 0.0338 0.02894 0.082 0.01447 0.0434 0.01929 0.10611 0.0096 0.0627 0.0096 0.14951 0 0.0965-0.0096 0.16399-0.0096 0.0675-0.02894 0.11575-0.01929 0.0434-0.04823 0.0675-0.02411 0.0193-0.0627 0.0193-0.06752 0-0.1881-0.0916-0.12058-0.0965-0.3135-0.20739-0.1881-0.11576-0.46302-0.2074-0.2701-0.0965-0.65112-0.0965-0.41479 0-0.75723 0.16881-0.33762 0.16399-0.57878 0.48713-0.24116 0.32315-0.3762 0.791-0.13022 0.46302-0.13022 1.0611 0 0.59324 0.1254 1.0514 0.13022 0.45337 0.36656 0.76205 0.24116 0.30386 0.58842 0.46302 0.34726 0.15434 0.78617 0.15434 0.37138 0 0.6463-0.0916 0.27974-0.0916 0.47267-0.20258 0.19775-0.11575 0.32315-0.20739 0.1254-0.0916 0.19775-0.0916 0.03376 0 0.05788 0.0145t0.03858 0.0579q0.01447 0.0386 0.01929 0.11093 0.0096 0.0724 0.0096 0.18328z"/>
   </g>
   <g transform="translate(-3.7042)" stroke-width=".26458" style="font-variant-caps:normal;font-variant-east-asian:normal;font-variant-ligatures:normal;font-variant-numeric:normal" aria-label="OS">
    <path d="m20.648 145.12q0 0.75723-0.17846 1.3649-0.17846 0.60772-0.53537 1.037-0.35209 0.42443-0.88746 0.65594-0.53537 0.22669-1.2492 0.22669-0.70418 0-1.2203-0.20739-0.51125-0.21222-0.84887-0.61254-0.3328-0.40032-0.49678-0.99357-0.16399-0.59324-0.16399-1.3649 0-0.73794 0.17846-1.3408 0.17846-0.60289 0.53537-1.0225 0.35691-0.42444 0.89228-0.65112 0.53537-0.23151 1.2492-0.23151 0.68971 0 1.201 0.20739 0.51125 0.2074 0.84887 0.60772 0.34244 0.39549 0.50643 0.98391 0.16881 0.5836 0.16881 1.3408zm-0.87299 0.0579q0-0.53054-0.09646-0.98392-0.09164-0.45819-0.3135-0.79099-0.21704-0.33762-0.5836-0.52572t-0.90675-0.1881-0.90675 0.20257q-0.36656 0.20257-0.59807 0.54019-0.22669 0.33762-0.32797 0.79099-0.09646 0.44855-0.09646 0.94534 0 0.54984 0.09164 1.0129t0.30868 0.80064q0.21704 0.33279 0.57878 0.52089 0.36656 0.18328 0.9164 0.18328 0.54501 0 0.9164-0.20257 0.37138-0.20257 0.59807-0.54501 0.22669-0.34727 0.32315-0.80064 0.09646-0.45338 0.09646-0.95981z" style="font-variant-caps:normal;font-variant-east-asian:normal;font-variant-ligatures:normal;font-variant-numeric:normal"/>
    <path d="m25.312 146.57q0 0.43891-0.16399 0.78135-0.15916 0.34244-0.44855 0.5836-0.28456 0.23633-0.67524 0.35691-0.38585 0.12058-0.8344 0.12058-0.3135 0-0.5836-0.053-0.26527-0.0531-0.47749-0.13023-0.20739-0.0772-0.35209-0.15916-0.13987-0.082-0.19775-0.13987-0.05305-0.0579-0.08199-0.1447-0.02412-0.0916-0.02412-0.24115 0-0.10611 0.0096-0.17364 0.0096-0.0723 0.02894-0.11575 0.01929-0.0434 0.04823-0.0579 0.02894-0.0193 0.06752-0.0193 0.06752 0 0.1881 0.082 0.1254 0.082 0.31833 0.17846 0.19292 0.0965 0.46302 0.18328 0.27492 0.082 0.63183 0.082 0.2701 0 0.49196-0.0724 0.22669-0.0723 0.38585-0.20257 0.16399-0.13505 0.2508-0.32797 0.08682-0.19293 0.08682-0.43891 0-0.26527-0.12058-0.45337-0.12058-0.1881-0.31833-0.32797-0.19775-0.1447-0.45338-0.26045-0.2508-0.12058-0.51608-0.24116-0.26527-0.1254-0.51608-0.27492t-0.44855-0.35209q-0.19775-0.20257-0.32315-0.47267-0.12058-0.27491-0.12058-0.65594 0-0.39068 0.13987-0.69453 0.14469-0.30868 0.3955-0.51608 0.25563-0.20739 0.60289-0.3135 0.35209-0.11093 0.75723-0.11093 0.2074 0 0.41479 0.0386 0.21222 0.0338 0.3955 0.0965 0.1881 0.0579 0.3328 0.13505 0.14469 0.0724 0.1881 0.12058 0.04823 0.0434 0.0627 0.0724 0.01447 0.0241 0.02412 0.0675 0.0096 0.0386 0.01447 0.0965 0.0048 0.0579 0.0048 0.14952 0 0.0868-0.0096 0.15434-0.0048 0.0675-0.01929 0.11576-0.01447 0.0434-0.04341 0.0675-0.02412 0.0193-0.05788 0.0193-0.05306 0-0.16881-0.0675-0.11093-0.0675-0.27492-0.14952-0.16399-0.0868-0.39067-0.15434-0.22186-0.0724-0.50161-0.0724-0.26045 0-0.45338 0.0724-0.19292 0.0675-0.31833 0.18328-0.1254 0.11576-0.1881 0.27492-0.0627 0.15916-0.0627 0.33762 0 0.26045 0.12058 0.44855 0.12058 0.1881 0.31833 0.3328 0.20257 0.14469 0.4582 0.26527t0.5209 0.24598q0.26527 0.12058 0.5209 0.27009 0.25563 0.1447 0.45338 0.34727 0.20257 0.19775 0.32315 0.47267 0.1254 0.27009 0.1254 0.64147z" style="font-variant-caps:normal;font-variant-east-asian:normal;font-variant-ligatures:normal;font-variant-numeric:normal"/>
   </g>
  </g>
  <g stroke="#000">
   <path d="m115.36 106.21h88.824v120.95h-88.824z" fill="#fff" stroke-width=".378"/>
   <path d="m132.06 114.29h68.081c0.8555 0 1.5442 0.68872 1.5442 1.5442v18.313c0 0.8555-0.68872 1.5442-1.5442 1.5442h-68.081c-0.85549 0-1.5442-0.68872-1.5442-1.5442v-18.313c0-0.8555 0.68872-1.5442 1.5442-1.5442z" fill="#fff" stroke-width=".25373"/>
   <path d="m162.68 117.17h34.774v15.875h-34.774z" fill="#2a7fff" stroke-width=".378"/>
  </g>
  <g transform="translate(122.01 -32.808)" fill="#fff" style="font-variant-caps:normal;font-variant-east-asian:normal;font-variant-ligatures:normal;font-variant-numeric:normal;shape-inside:url(#rect958);white-space:pre" aria-label="buffer">
   <path d="m45.674 161.22h-0.80546v-7.0707h0.86816v2.5225q0.54984-0.68971 1.4035-0.68971 0.47267 0 0.89228 0.19292 0.42444 0.18811 0.69453 0.53537 0.27492 0.34245 0.42926 0.82958 0.15434 0.48714 0.15434 1.0418 0 1.3167-0.65112 2.0354t-1.5627 0.71865q-0.90675 0-1.4228-0.75723zm-0.0096-2.5997q0 0.92122 0.2508 1.3312 0.40997 0.67041 1.1093 0.67041 0.56913 0 0.98392-0.49196 0.41479-0.49678 0.41479-1.4759 0-1.0032-0.40032-1.4807-0.3955-0.47749-0.9598-0.47749-0.56913 0-0.98392 0.49679-0.41479 0.49196-0.41479 1.4276z" style="font-variant-caps:normal;font-variant-east-asian:normal;font-variant-ligatures:normal;font-variant-numeric:normal"/>
   <path d="m53.729 161.22v-0.75241q-0.59807 0.86817-1.6254 0.86817-0.45338 0-0.84887-0.17363-0.39067-0.17364-0.5836-0.43409-0.1881-0.26527-0.26527-0.6463-0.05306-0.25562-0.05306-0.81028v-3.1736h0.86816v2.8408q0 0.68006 0.05306 0.9164 0.08199 0.34244 0.34727 0.54019 0.26527 0.19292 0.65595 0.19292t0.73312-0.19775q0.34244-0.20257 0.48231-0.54501 0.14469-0.34727 0.14469-1.0032v-2.7444h0.86816v5.1222z" style="font-variant-caps:normal;font-variant-east-asian:normal;font-variant-ligatures:normal;font-variant-numeric:normal"/>
   <path d="m56.078 161.22v-4.4469h-0.76688v-0.67524h0.76688v-0.54501q0-0.51607 0.09164-0.76688 0.1254-0.33762 0.4389-0.54501 0.31833-0.21222 0.88746-0.21222 0.36656 0 0.81029 0.0868l-0.13022 0.75723q-0.2701-0.0482-0.51125-0.0482-0.3955 0-0.55948 0.16881-0.16399 0.16881-0.16399 0.63183v0.47266h0.99839v0.67524h-0.99839v4.4469z" style="font-variant-caps:normal;font-variant-east-asian:normal;font-variant-ligatures:normal;font-variant-numeric:normal"/>
   <path d="m58.644 161.22v-4.4469h-0.76688v-0.67524h0.76688v-0.54501q0-0.51607 0.09164-0.76688 0.1254-0.33762 0.4389-0.54501 0.31833-0.21222 0.88746-0.21222 0.36656 0 0.81029 0.0868l-0.13022 0.75723q-0.2701-0.0482-0.51125-0.0482-0.3955 0-0.55948 0.16881-0.16399 0.16881-0.16399 0.63183v0.47266h0.99839v0.67524h-0.99839v4.4469z" style="font-variant-caps:normal;font-variant-east-asian:normal;font-variant-ligatures:normal;font-variant-numeric:normal"/>
   <path d="m64.682 159.57 0.8971 0.11093q-0.21222 0.78617-0.78617 1.2203-0.57395 0.43408-1.4662 0.43408-1.1238 0-1.7846-0.68971-0.65595-0.69453-0.65595-1.9437 0-1.2926 0.66559-2.0064 0.66559-0.71382 1.7267-0.71382 1.0273 0 1.6785 0.69935 0.65112 0.69936 0.65112 1.9678 0 0.0772-0.0048 0.23151h-3.8199q0.04823 0.84405 0.47749 1.2926 0.42926 0.44855 1.0707 0.44855 0.47749 0 0.81511-0.2508 0.33762-0.2508 0.53537-0.80064zm-2.8505-1.4035h2.8601q-0.05788-0.6463-0.32797-0.96945-0.41479-0.50161-1.0756-0.50161-0.59807 0-1.008 0.40032-0.40514 0.40032-0.44855 1.0707z" style="font-variant-caps:normal;font-variant-east-asian:normal;font-variant-ligatures:normal;font-variant-numeric:normal"/>
   <path d="m66.665 161.22v-5.1222h0.78135v0.77653q0.29904-0.54501 0.54984-0.71865 0.25563-0.17363 0.55948-0.17363 0.4389 0 0.89228 0.27974l-0.29903 0.80546q-0.31833-0.1881-0.63665-0.1881-0.28456 0-0.51125 0.17364-0.22669 0.1688-0.32315 0.47266-0.14469 0.46302-0.14469 1.0129v2.6817z" style="font-variant-caps:normal;font-variant-east-asian:normal;font-variant-ligatures:normal;font-variant-numeric:normal"/>
  </g>
  <path d="m121.76 139.46h77.147c2.2678 0 4.0935 1.8257 4.0935 4.0935v48.546c0 2.2678-1.8257 4.0935-4.0935 4.0935h-77.147c-2.2678 0-4.0935-1.8257-4.0935-4.0935v-48.546c0-2.2678 1.8257-4.0935 4.0935-4.0935z" fill="#fca" stroke="#000" stroke-width=".45236"/>
  <g fill="#fff" stroke="#000">
   <path d="m131.24 142.62h31.649c0.39769 0 0.71786 0.68872 0.71786 1.5442v18.313c0 0.8555-0.32017 1.5442-0.71786 1.5442h-31.649c-0.39769 0-0.71786-0.68872-0.71786-1.5442v-18.313c0-0.8555 0.32017-1.5442 0.71786-1.5442z" stroke-width=".173"/>
   <path d="m131.24 170.94h31.654c0.39777 0 0.71799 0.68872 0.71799 1.5442v18.313c0 0.8555-0.32022 1.5442-0.71799 1.5442h-31.654c-0.39777 0-0.71799-0.68872-0.71799-1.5442v-18.313c0-0.85549 0.32022-1.5442 0.71799-1.5442z" stroke-width=".17302"/>
   <path d="m132.06 199.27h68.081c0.8555 0 1.5442 0.68872 1.5442 1.5442v18.313c0 0.8555-0.68872 1.5442-1.5442 1.5442h-68.081c-0.85549 0-1.5442-0.68872-1.5442-1.5442v-18.313c0-0.8555 0.68872-1.5442 1.5442-1.5442z" stroke-width=".25373"/>
  </g>
  <path d="m162.68 202.22h34.774v15.875h-34.774z" fill="#2a7fff" stroke="#000" stroke-width=".378"/>
  <g transform="translate(122.01 52.236)" fill="#fff" style="font-variant-caps:normal;font-variant-east-asian:normal;font-variant-ligatures:normal;font-variant-numeric:normal;shape-inside:url(#rect958-47);white-space:pre" aria-label="buffer">
   <path d="m45.674 161.22h-0.80546v-7.0707h0.86816v2.5225q0.54984-0.68971 1.4035-0.68971 0.47267 0 0.89228 0.19292 0.42444 0.18811 0.69453 0.53537 0.27492 0.34245 0.42926 0.82958 0.15434 0.48714 0.15434 1.0418 0 1.3167-0.65112 2.0354t-1.5627 0.71865q-0.90675 0-1.4228-0.75723zm-0.0096-2.5997q0 0.92122 0.2508 1.3312 0.40997 0.67041 1.1093 0.67041 0.56913 0 0.98392-0.49196 0.41479-0.49678 0.41479-1.4759 0-1.0032-0.40032-1.4807-0.3955-0.47749-0.9598-0.47749-0.56913 0-0.98392 0.49679-0.41479 0.49196-0.41479 1.4276z" style="font-variant-caps:normal;font-variant-east-asian:normal;font-variant-ligatures:normal;font-variant-numeric:normal"/>
   <path d="m53.729 161.22v-0.75241q-0.59807 0.86817-1.6254 0.86817-0.45338 0-0.84887-0.17363-0.39067-0.17364-0.5836-0.43409-0.1881-0.26527-0.26527-0.6463-0.05306-0.25562-0.05306-0.81028v-3.1736h0.86816v2.8408q0 0.68006 0.05306 0.9164 0.08199 0.34244 0.34727 0.54019 0.26527 0.19292 0.65595 0.19292t0.73312-0.19775q0.34244-0.20257 0.48231-0.54501 0.14469-0.34727 0.14469-1.0032v-2.7444h0.86816v5.1222z" style="font-variant-caps:normal;font-variant-east-asian:normal;font-variant-ligatures:normal;font-variant-numeric:normal"/>
   <path d="m56.078 161.22v-4.4469h-0.76688v-0.67524h0.76688v-0.54501q0-0.51607 0.09164-0.76688 0.1254-0.33762 0.4389-0.54501 0.31833-0.21222 0.88746-0.21222 0.36656 0 0.81029 0.0868l-0.13022 0.75723q-0.2701-0.0482-0.51125-0.0482-0.3955 0-0.55948 0.16881-0.16399 0.16881-0.16399 0.63183v0.47266h0.99839v0.67524h-0.99839v4.4469z" style="font-variant-caps:normal;font-variant-east-asian:normal;font-variant-ligatures:normal;font-variant-numeric:normal"/>
   <path d="m58.644 161.22v-4.4469h-0.76688v-0.67524h0.76688v-0.54501q0-0.51607 0.09164-0.76688 0.1254-0.33762 0.4389-0.54501 0.31833-0.21222 0.88746-0.21222 0.36656 0 0.81029 0.0868l-0.13022 0.75723q-0.2701-0.0482-0.51125-0.0482-0.3955 0-0.55948 0.16881-0.16399 0.16881-0.16399 0.63183v0.47266h0.99839v0.67524h-0.99839v4.4469z" style="font-variant-caps:normal;font-variant-east-asian:normal;font-variant-ligatures:normal;font-variant-numeric:normal"/>
   <path d="m64.682 159.57 0.8971 0.11093q-0.21222 0.78617-0.78617 1.2203-0.57395 0.43408-1.4662 0.43408-1.1238 0-1.7846-0.68971-0.65595-0.69453-0.65595-1.9437 0-1.2926 0.66559-2.0064 0.66559-0.71382 1.7267-0.71382 1.0273 0 1.6785 0.69935 0.65112 0.69936 0.65112 1.9678 0 0.0772-0.0048 0.23151h-3.8199q0.04823 0.84405 0.47749 1.2926 0.42926 0.44855 1.0707 0.44855 0.47749 0 0.81511-0.2508 0.33762-0.2508 0.53537-0.80064zm-2.8505-1.4035h2.8601q-0.05788-0.6463-0.32797-0.96945-0.41479-0.50161-1.0756-0.50161-0.59807 0-1.008 0.40032-0.40514 0.40032-0.44855 1.0707z" style="font-variant-caps:normal;font-variant-east-asian:normal;font-variant-ligatures:normal;font-variant-numeric:normal"/>
   <path d="m66.665 161.22v-5.1222h0.78135v0.77653q0.29904-0.54501 0.54984-0.71865 0.25563-0.17363 0.55948-0.17363 0.4389 0 0.89228 0.27974l-0.29903 0.80546q-0.31833-0.1881-0.63665-0.1881-0.28456 0-0.51125 0.17364-0.22669 0.1688-0.32315 0.47266-0.14469 0.46302-0.14469 1.0129v2.6817z" style="font-variant-caps:normal;font-variant-east-asian:normal;font-variant-ligatures:normal;font-variant-numeric:normal"/>
  </g>
  <g>
   <g transform="translate(103.64 .37798)" stroke-width=".265" style="font-variant-caps:normal;font-variant-east-asian:normal;font-variant-ligatures:normal;font-variant-numeric:normal" aria-label="TCP/IP">
    <path d="m35.179 150.16q0 0.0916-0.0096 0.15916-0.0096 0.0675-0.03376 0.11093-0.01929 0.0386-0.05305 0.0579-0.02894 0.0193-0.06752 0.0193h-1.7556v5.4116q0 0.0386-0.01929 0.0675t-0.06752 0.0482q-0.04823 0.0145-0.13022 0.0241-0.07717 0.0145-0.19775 0.0145-0.11576 0-0.19775-0.0145-0.08199-0.01-0.13022-0.0241-0.04823-0.0193-0.06752-0.0482t-0.01929-0.0675v-5.4116h-1.7556q-0.03858 0-0.07235-0.0193-0.02894-0.0193-0.04823-0.0579-0.01929-0.0434-0.03376-0.11093-0.0096-0.0675-0.0096-0.15916 0-0.0916 0.0096-0.15916 0.01447-0.0724 0.03376-0.11576 0.01929-0.0434 0.04823-0.0627 0.03376-0.0193 0.07235-0.0193h4.3408q0.03859 0 0.06752 0.0193 0.03376 0.0193 0.05305 0.0627 0.02412 0.0434 0.03376 0.11576 0.0096 0.0675 0.0096 0.15916z" style="font-variant-caps:normal;font-variant-east-asian:normal;font-variant-ligatures:normal;font-variant-numeric:normal"/>
    <path d="m40.065 155.16q0 0.0772-0.0048 0.13505-0.0048 0.0579-0.01929 0.10128-0.0096 0.0434-0.02894 0.0772-0.01929 0.0338-0.06752 0.082t-0.20257 0.14951q-0.15434 0.0965-0.38585 0.19293-0.22669 0.0916-0.52572 0.15434-0.29421 0.0675-0.6463 0.0675-0.60772 0-1.0997-0.20257-0.48714-0.20257-0.8344-0.59807-0.34244-0.39549-0.53054-0.97427-0.18328-0.5836-0.18328-1.3408 0-0.77653 0.19775-1.3842 0.20257-0.60772 0.56431-1.0273 0.36174-0.42443 0.86334-0.6463 0.50643-0.22186 1.119-0.22186 0.2701 0 0.52572 0.0531 0.25563 0.0482 0.47267 0.1254t0.38585 0.17846q0.16881 0.10128 0.23151 0.16881 0.06752 0.0627 0.08682 0.0965 0.01929 0.0338 0.02894 0.082 0.01447 0.0434 0.01929 0.10611 0.0096 0.0627 0.0096 0.14952 0 0.0965-0.0096 0.16399-0.0096 0.0675-0.02894 0.11575-0.01929 0.0434-0.04823 0.0675-0.02412 0.0193-0.0627 0.0193-0.06752 0-0.1881-0.0916-0.12058-0.0965-0.3135-0.2074-0.1881-0.11575-0.46302-0.20739-0.2701-0.0965-0.65112-0.0965-0.41479 0-0.75723 0.16881-0.33762 0.16398-0.57878 0.48713-0.24116 0.32315-0.3762 0.791-0.13022 0.46302-0.13022 1.0611 0 0.59324 0.1254 1.0514 0.13022 0.45338 0.36656 0.76206 0.24116 0.30385 0.58842 0.46302 0.34726 0.15434 0.78617 0.15434 0.37138 0 0.6463-0.0916 0.27974-0.0916 0.47267-0.20257 0.19775-0.11576 0.32315-0.2074 0.1254-0.0916 0.19775-0.0916 0.03376 0 0.05788 0.0145t0.03859 0.0579q0.01447 0.0386 0.01929 0.11093 0.0096 0.0724 0.0096 0.18328z" style="font-variant-caps:normal;font-variant-east-asian:normal;font-variant-ligatures:normal;font-variant-numeric:normal"/>
    <path d="m44.999 151.63q0 0.46785-0.15434 0.84405-0.15434 0.37621-0.44373 0.64148-0.28456 0.26527-0.70418 0.40997-0.41479 0.14469-0.99357 0.14469h-0.709v2.2476q0 0.0386-0.02412 0.0675-0.01929 0.0289-0.06752 0.0482-0.04341 0.0145-0.1254 0.0241-0.07717 0.0145-0.19775 0.0145-0.12058 0-0.20257-0.0145-0.07717-0.01-0.1254-0.0241-0.04823-0.0193-0.06752-0.0482t-0.01929-0.0675v-5.7588q0-0.19293 0.10129-0.27492 0.10129-0.082 0.22669-0.082h1.336q0.20257 0 0.38585 0.0193 0.1881 0.0145 0.4389 0.0724 0.25563 0.053 0.51608 0.20739 0.26527 0.14952 0.44855 0.37138 0.18328 0.22187 0.27974 0.51608 0.10129 0.28939 0.10129 0.64147zm-0.87299 0.0675q0-0.38103-0.14469-0.63665-0.13987-0.25563-0.35209-0.38103-0.2074-0.1254-0.43408-0.15917-0.22186-0.0338-0.43408-0.0338h-0.76688v2.5032h0.74759q0.3762 0 0.62218-0.0965 0.2508-0.0965 0.41961-0.26528 0.16881-0.17363 0.25563-0.40996 0.08682-0.24116 0.08682-0.5209z" style="font-variant-caps:normal;font-variant-east-asian:normal;font-variant-ligatures:normal;font-variant-numeric:normal"/>
    <path d="m45.737 157.2q-0.01929 0.0627-0.05306 0.0965-0.02894 0.0386-0.07717 0.0579t-0.12058 0.0289q-0.06752 0.01-0.16881 0.01-0.12058 0-0.20257-0.0193-0.07717-0.0145-0.12058-0.0482-0.04341-0.0289-0.05306-0.0772-0.0096-0.0434 0.01929-0.10611l2.918-8.0016q0.01929-0.0627 0.04823-0.0965 0.03376-0.0386 0.07717-0.0579 0.04823-0.0241 0.12058-0.0289 0.07235-0.01 0.17363-0.01 0.12058 0 0.19775 0.0193 0.07717 0.0145 0.12058 0.0434 0.04341 0.0289 0.05306 0.0772 0.0096 0.0482-0.01447 0.11093z" style="font-variant-caps:normal;font-variant-east-asian:normal;font-variant-ligatures:normal;font-variant-numeric:normal"/>
    <path d="m50.406 155.91q0 0.0386-0.01929 0.0675t-0.06752 0.0482q-0.04823 0.0145-0.13022 0.0241-0.07717 0.0145-0.19775 0.0145-0.11576 0-0.19775-0.0145-0.08199-0.01-0.13022-0.0241-0.04823-0.0193-0.06752-0.0482t-0.01929-0.0675v-5.9903q0-0.0386 0.01929-0.0675 0.02412-0.0289 0.07235-0.0434 0.05306-0.0193 0.13022-0.0289 0.08199-0.0145 0.19292-0.0145 0.12058 0 0.19775 0.0145 0.08199 0.01 0.13022 0.0289 0.04823 0.0145 0.06752 0.0434t0.01929 0.0675z" style="font-variant-caps:normal;font-variant-east-asian:normal;font-variant-ligatures:normal;font-variant-numeric:normal"/>
    <path d="m55.899 151.63q0 0.46785-0.15434 0.84405-0.15434 0.37621-0.44373 0.64148-0.28456 0.26527-0.70418 0.40997-0.41479 0.14469-0.99356 0.14469h-0.709v2.2476q0 0.0386-0.02412 0.0675-0.01929 0.0289-0.06752 0.0482-0.04341 0.0145-0.1254 0.0241-0.07717 0.0145-0.19775 0.0145-0.12058 0-0.20257-0.0145-0.07717-0.01-0.1254-0.0241-0.04823-0.0193-0.06752-0.0482t-0.01929-0.0675v-5.7588q0-0.19293 0.10129-0.27492 0.10128-0.082 0.22669-0.082h1.336q0.20257 0 0.38585 0.0193 0.1881 0.0145 0.4389 0.0724 0.25563 0.053 0.51608 0.20739 0.26527 0.14952 0.44855 0.37138 0.18328 0.22187 0.27974 0.51608 0.10129 0.28939 0.10129 0.64147zm-0.87299 0.0675q0-0.38103-0.14469-0.63665-0.13987-0.25563-0.35209-0.38103-0.2074-0.1254-0.43408-0.15917-0.22186-0.0338-0.43408-0.0338h-0.76688v2.5032h0.74759q0.3762 0 0.62218-0.0965 0.2508-0.0965 0.41961-0.26528 0.16881-0.17363 0.25563-0.40996 0.08682-0.24116 0.08682-0.5209z" style="font-variant-caps:normal;font-variant-east-asian:normal;font-variant-ligatures:normal;font-variant-numeric:normal"/>
   </g>
   <g transform="translate(103.64 .37798)" stroke-width=".265" style="font-variant-caps:normal;font-variant-east-asian:normal;font-variant-ligatures:normal;font-variant-numeric:normal" aria-label="APP">
    <path d="m35.845 127.27q0.03859 0.1061 0.03859 0.17363 0.0048 0.0627-0.03376 0.0965-0.03858 0.0338-0.13022 0.0434-0.08682 0.01-0.23633 0.01-0.14952 0-0.24116-0.01-0.08682-5e-3 -0.13505-0.0193-0.04341-0.0193-0.06752-0.0482-0.01929-0.0289-0.03859-0.0724l-0.53537-1.5193h-2.5948l-0.51125 1.5q-0.01447 0.0434-0.03859 0.0772-0.02412 0.0289-0.07235 0.053-0.04341 0.0193-0.13022 0.0289-0.08199 0.01-0.21704 0.01-0.13987 0-0.23151-0.0145-0.08682-0.01-0.1254-0.0434-0.03376-0.0338-0.03376-0.0965 0.0048-0.0675 0.04341-0.17364l2.0932-5.7974q0.01929-0.053 0.04823-0.0868 0.03376-0.0338 0.09164-0.053 0.0627-0.0193 0.15434-0.0241 0.09646-0.01 0.24116-0.01 0.15434 0 0.25563 0.01 0.10129 5e-3 0.16399 0.0241 0.0627 0.0193 0.09646 0.0579 0.03376 0.0338 0.05306 0.0868zm-2.6865-5.1174h-0.0048l-1.0756 3.1109h2.1704z" style="font-variant-caps:normal;font-variant-east-asian:normal;font-variant-ligatures:normal;font-variant-numeric:normal"/>
    <path d="m40.716 123.15q0 0.46785-0.15434 0.84405-0.15434 0.3762-0.44373 0.64148-0.28456 0.26527-0.70418 0.40996-0.41479 0.1447-0.99356 0.1447h-0.709v2.2476q0 0.0386-0.02412 0.0675-0.01929 0.0289-0.06752 0.0482-0.04341 0.0145-0.1254 0.0241-0.07717 0.0145-0.19775 0.0145-0.12058 0-0.20257-0.0145-0.07717-0.01-0.1254-0.0241-0.04823-0.0193-0.06752-0.0482t-0.01929-0.0675v-5.7588q0-0.19293 0.10129-0.27492 0.10129-0.082 0.22669-0.082h1.336q0.20257 0 0.38585 0.0193 0.1881 0.0145 0.4389 0.0724 0.25563 0.053 0.51608 0.20739 0.26527 0.14952 0.44855 0.37138 0.18328 0.22187 0.27974 0.51608 0.10129 0.28938 0.10129 0.64147zm-0.87299 0.0675q0-0.38103-0.14469-0.63666-0.13987-0.25562-0.35209-0.38102-0.2074-0.12541-0.43408-0.15917-0.22186-0.0338-0.43408-0.0338h-0.76688v2.5032h0.74758q0.3762 0 0.62218-0.0965 0.2508-0.0965 0.41961-0.26527 0.16881-0.17363 0.25563-0.40997 0.08682-0.24115 0.08682-0.52089z" style="font-variant-caps:normal;font-variant-east-asian:normal;font-variant-ligatures:normal;font-variant-numeric:normal"/>
    <path d="m45.829 123.15q0 0.46785-0.15434 0.84405t-0.44373 0.64148q-0.28456 0.26527-0.70418 0.40996-0.41479 0.1447-0.99356 0.1447h-0.709v2.2476q0 0.0386-0.02412 0.0675-0.01929 0.0289-0.06752 0.0482-0.04341 0.0145-0.1254 0.0241-0.07717 0.0145-0.19775 0.0145-0.12058 0-0.20257-0.0145-0.07717-0.01-0.1254-0.0241-0.04823-0.0193-0.06752-0.0482t-0.01929-0.0675v-5.7588q0-0.19293 0.10129-0.27492 0.10128-0.082 0.22669-0.082h1.336q0.20257 0 0.38585 0.0193 0.1881 0.0145 0.4389 0.0724 0.25563 0.053 0.51608 0.20739 0.26527 0.14952 0.44855 0.37138 0.18328 0.22187 0.27974 0.51608 0.10128 0.28938 0.10128 0.64147zm-0.87299 0.0675q0-0.38103-0.14469-0.63666-0.13987-0.25562-0.35209-0.38102-0.20739-0.12541-0.43408-0.15917-0.22186-0.0338-0.43408-0.0338h-0.76688v2.5032h0.74759q0.3762 0 0.62218-0.0965 0.2508-0.0965 0.41961-0.26527 0.16881-0.17363 0.25563-0.40997 0.08682-0.24115 0.08682-0.52089z" style="font-variant-caps:normal;font-variant-east-asian:normal;font-variant-ligatures:normal;font-variant-numeric:normal"/>
   </g>
   <g transform="translate(103.64 .37798)" stroke-width=".265" style="font-variant-caps:normal;font-variant-east-asian:normal;font-variant-ligatures:normal;font-variant-numeric:normal" aria-label="Driver">
    <path d="m35.309 181.84q0 0.81028-0.2074 1.418-0.20739 0.60289-0.60771 1.0032-0.3955 0.39549-0.97427 0.59324-0.57878 0.19775-1.3794 0.19775h-1.3215q-0.11093 0-0.21222-0.0724-0.09646-0.0772-0.09646-0.26527v-5.5659q0-0.1881 0.09646-0.26045 0.10129-0.0772 0.21222-0.0772h1.4132q0.81029 0 1.3698 0.21222 0.55948 0.20739 0.93569 0.60289 0.38103 0.39067 0.57395 0.95016 0.19775 0.55948 0.19775 1.2637zm-0.87299 0.0338q0-0.50643-0.1254-0.94051-0.1254-0.43891-0.3955-0.75723-0.26527-0.31833-0.67524-0.49679-0.40997-0.17845-1.0563-0.17845h-0.84405v4.8569h0.85369q0.59807 0 1.008-0.14952 0.40997-0.14951 0.68488-0.45819 0.27492-0.30868 0.40997-0.7717 0.13987-0.46785 0.13987-1.1045z" style="font-variant-caps:normal;font-variant-east-asian:normal;font-variant-ligatures:normal;font-variant-numeric:normal"/>
    <path d="m39.033 180.88q0 0.10611-0.0048 0.17846-0.0048 0.0723-0.01929 0.11575-0.01447 0.0386-0.03859 0.0627-0.01929 0.0193-0.05788 0.0193t-0.09646-0.0193q-0.05306-0.0241-0.1254-0.0434-0.06752-0.0241-0.15434-0.0434t-0.1881-0.0193q-0.12058 0-0.23633 0.0482t-0.24598 0.15916q-0.1254 0.11093-0.26527 0.29421t-0.30868 0.44855v2.8553q0 0.0386-0.01929 0.0675-0.01929 0.0241-0.0627 0.0434t-0.12058 0.0289q-0.07717 0.01-0.19775 0.01-0.11576 0-0.19292-0.01t-0.1254-0.0289q-0.04341-0.0193-0.0627-0.0434-0.01447-0.0289-0.01447-0.0675v-4.3408q0-0.0386 0.01447-0.0627 0.01447-0.0289 0.05788-0.0482 0.04341-0.0241 0.11093-0.0289 0.06752-0.01 0.17846-0.01 0.10611 0 0.17363 0.01 0.07235 5e-3 0.11093 0.0289 0.03858 0.0193 0.05305 0.0482 0.01929 0.0241 0.01929 0.0627v0.63183q0.17846-0.26045 0.3328-0.42444 0.15916-0.16399 0.29903-0.25563 0.13987-0.0965 0.27492-0.13022 0.13987-0.0386 0.27974-0.0386 0.0627 0 0.13987 0.01 0.08199 5e-3 0.16881 0.0241 0.08682 0.0193 0.15434 0.0434 0.07235 0.0241 0.10129 0.0482 0.02894 0.0241 0.03858 0.0482 0.0096 0.0193 0.01447 0.053 0.0096 0.0338 0.0096 0.10129 0.0048 0.0627 0.0048 0.17363z" style="font-variant-caps:normal;font-variant-east-asian:normal;font-variant-ligatures:normal;font-variant-numeric:normal"/>
    <path d="m40.745 184.93q0 0.0386-0.01929 0.0675-0.01929 0.0241-0.0627 0.0434t-0.12058 0.0289q-0.07717 0.01-0.19775 0.01-0.11576 0-0.19292-0.01t-0.1254-0.0289q-0.04341-0.0193-0.0627-0.0434-0.01447-0.0289-0.01447-0.0675v-4.3408q0-0.0338 0.01447-0.0627 0.01929-0.0289 0.0627-0.0482 0.04823-0.0193 0.1254-0.0289 0.07717-0.01 0.19292-0.01 0.12058 0 0.19775 0.01t0.12058 0.0289q0.04341 0.0193 0.0627 0.0482t0.01929 0.0627zm0.09164-5.807q0 0.27975-0.10611 0.38103-0.10611 0.10129-0.39067 0.10129-0.27974 0-0.38585-0.0965-0.10128-0.10129-0.10128-0.37621 0-0.27974 0.10611-0.38103 0.10611-0.10128 0.39067-0.10128 0.27974 0 0.38103 0.10128 0.10611 0.0965 0.10611 0.37138z" style="font-variant-caps:normal;font-variant-east-asian:normal;font-variant-ligatures:normal;font-variant-numeric:normal"/>
    <path d="m45.785 180.58q0 0.0193-0.0048 0.0434 0 0.0193-0.0048 0.0434t-0.01447 0.0531q-0.0048 0.0289-0.01447 0.0627l-1.4807 4.1238q-0.01929 0.0531-0.05305 0.0868-0.02894 0.0338-0.09164 0.0531t-0.15916 0.0241q-0.09646 0.01-0.24116 0.01-0.14469 0-0.24116-0.01-0.09646-0.01-0.15916-0.0289-0.05788-0.0193-0.09164-0.0531t-0.05305-0.082l-1.4759-4.1238q-0.01929-0.0579-0.03376-0.10128-0.0096-0.0434-0.01447-0.0627 0-0.0241 0-0.0386 0-0.0386 0.01929-0.0675t0.0627-0.0434q0.04823-0.0193 0.12058-0.0241 0.07717-5e-3 0.1881-5e-3 0.13987 0 0.22186 0.01 0.08682 5e-3 0.13022 0.0241 0.04823 0.0193 0.06752 0.0482 0.02411 0.0289 0.04341 0.0724l1.2251 3.5788 0.01929 0.0579 0.01447-0.0579 1.2106-3.5788q0.0096-0.0434 0.03376-0.0724 0.02412-0.0289 0.06752-0.0482 0.04823-0.0193 0.1254-0.0241 0.08199-0.01 0.21222-0.01 0.11093 0 0.18328 5e-3 0.07235 5e-3 0.11093 0.0241 0.04341 0.0193 0.05788 0.0482 0.01929 0.0241 0.01929 0.0627z" style="font-variant-caps:normal;font-variant-east-asian:normal;font-variant-ligatures:normal;font-variant-numeric:normal"/>
    <path d="m50.29 182.57q0 0.1881-0.09646 0.2701-0.09164 0.0772-0.21222 0.0772h-2.8456q0 0.36173 0.07235 0.65112t0.24116 0.49678q0.16881 0.2074 0.4389 0.31833 0.2701 0.11093 0.66077 0.11093 0.30868 0 0.54984-0.0482 0.24116-0.053 0.41479-0.11575 0.17846-0.0627 0.28939-0.11094 0.11576-0.053 0.17363-0.053 0.03376 0 0.05788 0.0193 0.02894 0.0145 0.04341 0.0482 0.01447 0.0338 0.01929 0.0965 0.0096 0.0579 0.0096 0.14469 0 0.0627-0.0048 0.11093-0.0048 0.0434-0.01447 0.082-0.0048 0.0338-0.02412 0.0627-0.01447 0.0289-0.04341 0.0579-0.02412 0.0241-0.15434 0.0868-0.13022 0.0579-0.33762 0.11575-0.2074 0.0579-0.48231 0.10129-0.2701 0.0482-0.57878 0.0482-0.53537 0-0.94051-0.14952-0.40032-0.14951-0.67524-0.44372-0.27492-0.29421-0.41479-0.73794-0.13987-0.44373-0.13987-1.0322 0-0.55949 0.14469-1.0032 0.14469-0.44855 0.41479-0.75724 0.27492-0.3135 0.66077-0.47749 0.38585-0.1688 0.86334-0.1688 0.51125 0 0.86816 0.16398 0.36174 0.16399 0.59324 0.44373 0.23151 0.27492 0.33762 0.65112 0.11093 0.37138 0.11093 0.79582zm-0.80064-0.23633q0.01447-0.62701-0.27974-0.98392-0.28939-0.35691-0.86334-0.35691-0.29421 0-0.51608 0.11093t-0.37138 0.29421-0.23151 0.42926q-0.08199 0.24116-0.09164 0.50643z" style="font-variant-caps:normal;font-variant-east-asian:normal;font-variant-ligatures:normal;font-variant-numeric:normal"/>
    <path d="m54.042 180.88q0 0.10611-0.0048 0.17846-0.0048 0.0723-0.01929 0.11575-0.01447 0.0386-0.03858 0.0627-0.01929 0.0193-0.05788 0.0193t-0.09646-0.0193q-0.05305-0.0241-0.1254-0.0434-0.06752-0.0241-0.15434-0.0434-0.08682-0.0193-0.1881-0.0193-0.12058 0-0.23633 0.0482t-0.24598 0.15916q-0.1254 0.11093-0.26527 0.29421t-0.30868 0.44855v2.8553q0 0.0386-0.01929 0.0675-0.01929 0.0241-0.0627 0.0434t-0.12058 0.0289q-0.07717 0.01-0.19775 0.01-0.11576 0-0.19292-0.01t-0.1254-0.0289q-0.04341-0.0193-0.0627-0.0434-0.01447-0.0289-0.01447-0.0675v-4.3408q0-0.0386 0.01447-0.0627 0.01447-0.0289 0.05788-0.0482 0.04341-0.0241 0.11093-0.0289 0.06752-0.01 0.17846-0.01 0.10611 0 0.17363 0.01 0.07235 5e-3 0.11093 0.0289 0.03859 0.0193 0.05305 0.0482 0.01929 0.0241 0.01929 0.0627v0.63183q0.17846-0.26045 0.3328-0.42444 0.15916-0.16399 0.29903-0.25563 0.13987-0.0965 0.27492-0.13022 0.13987-0.0386 0.27974-0.0386 0.0627 0 0.13987 0.01 0.08199 5e-3 0.16881 0.0241 0.08682 0.0193 0.15434 0.0434 0.07235 0.0241 0.10129 0.0482 0.02894 0.0241 0.03858 0.0482 0.0096 0.0193 0.01447 0.053 0.0096 0.0338 0.0096 0.10129 0.0048 0.0627 0.0048 0.17363z" style="font-variant-caps:normal;font-variant-east-asian:normal;font-variant-ligatures:normal;font-variant-numeric:normal"/>
   </g>
   <g transform="translate(103.64 .37798)" stroke-width=".26458" style="font-variant-caps:normal;font-variant-east-asian:normal;font-variant-ligatures:normal;font-variant-numeric:normal" aria-label="OS">
    <path d="m20.648 145.12q0 0.75723-0.17846 1.3649-0.17846 0.60772-0.53537 1.037-0.35209 0.42443-0.88746 0.65594-0.53537 0.22669-1.2492 0.22669-0.70418 0-1.2203-0.20739-0.51125-0.21222-0.84887-0.61254-0.3328-0.40032-0.49678-0.99357-0.16399-0.59324-0.16399-1.3649 0-0.73794 0.17846-1.3408 0.17846-0.60289 0.53537-1.0225 0.35691-0.42444 0.89228-0.65112 0.53537-0.23151 1.2492-0.23151 0.68971 0 1.201 0.20739 0.51125 0.2074 0.84887 0.60772 0.34244 0.39549 0.50643 0.98391 0.16881 0.5836 0.16881 1.3408zm-0.87299 0.0579q0-0.53054-0.09646-0.98392-0.09164-0.45819-0.3135-0.79099-0.21704-0.33762-0.5836-0.52572t-0.90675-0.1881-0.90675 0.20257q-0.36656 0.20257-0.59807 0.54019-0.22669 0.33762-0.32797 0.79099-0.09646 0.44855-0.09646 0.94534 0 0.54984 0.09164 1.0129t0.30868 0.80064q0.21704 0.33279 0.57878 0.52089 0.36656 0.18328 0.9164 0.18328 0.54501 0 0.9164-0.20257 0.37138-0.20257 0.59807-0.54501 0.22669-0.34727 0.32315-0.80064 0.09646-0.45338 0.09646-0.95981z" style="font-variant-caps:normal;font-variant-east-asian:normal;font-variant-ligatures:normal;font-variant-numeric:normal"/>
    <path d="m25.312 146.57q0 0.43891-0.16399 0.78135-0.15916 0.34244-0.44855 0.5836-0.28456 0.23633-0.67524 0.35691-0.38585 0.12058-0.8344 0.12058-0.3135 0-0.5836-0.053-0.26527-0.0531-0.47749-0.13023-0.20739-0.0772-0.35209-0.15916-0.13987-0.082-0.19775-0.13987-0.05305-0.0579-0.08199-0.1447-0.02412-0.0916-0.02412-0.24115 0-0.10611 0.0096-0.17364 0.0096-0.0723 0.02894-0.11575 0.01929-0.0434 0.04823-0.0579 0.02894-0.0193 0.06752-0.0193 0.06752 0 0.1881 0.082 0.1254 0.082 0.31833 0.17846 0.19292 0.0965 0.46302 0.18328 0.27492 0.082 0.63183 0.082 0.2701 0 0.49196-0.0724 0.22669-0.0723 0.38585-0.20257 0.16399-0.13505 0.2508-0.32797 0.08682-0.19293 0.08682-0.43891 0-0.26527-0.12058-0.45337-0.12058-0.1881-0.31833-0.32797-0.19775-0.1447-0.45338-0.26045-0.2508-0.12058-0.51608-0.24116-0.26527-0.1254-0.51608-0.27492t-0.44855-0.35209q-0.19775-0.20257-0.32315-0.47267-0.12058-0.27491-0.12058-0.65594 0-0.39068 0.13987-0.69453 0.14469-0.30868 0.3955-0.51608 0.25563-0.20739 0.60289-0.3135 0.35209-0.11093 0.75723-0.11093 0.2074 0 0.41479 0.0386 0.21222 0.0338 0.3955 0.0965 0.1881 0.0579 0.3328 0.13505 0.14469 0.0724 0.1881 0.12058 0.04823 0.0434 0.0627 0.0724 0.01447 0.0241 0.02412 0.0675 0.0096 0.0386 0.01447 0.0965 0.0048 0.0579 0.0048 0.14952 0 0.0868-0.0096 0.15434-0.0048 0.0675-0.01929 0.11576-0.01447 0.0434-0.04341 0.0675-0.02412 0.0193-0.05788 0.0193-0.05306 0-0.16881-0.0675-0.11093-0.0675-0.27492-0.14952-0.16399-0.0868-0.39067-0.15434-0.22186-0.0724-0.50161-0.0724-0.26045 0-0.45338 0.0724-0.19292 0.0675-0.31833 0.18328-0.1254 0.11576-0.1881 0.27492-0.0627 0.15916-0.0627 0.33762 0 0.26045 0.12058 0.44855 0.12058 0.1881 0.31833 0.3328 0.20257 0.14469 0.4582 0.26527t0.5209 0.24598q0.26527 0.12058 0.5209 0.27009 0.25563 0.1447 0.45338 0.34727 0.20257 0.19775 0.32315 0.47267 0.1254 0.27009 0.1254 0.64147z" style="font-variant-caps:normal;font-variant-east-asian:normal;font-variant-ligatures:normal;font-variant-numeric:normal"/>
   </g>
  </g>
  <text x="133.32184" y="213.74561" fill="#000000" font-family="Calibri" font-size="9.8778px" stroke-width=".26458" style="font-variant-caps:normal;font-variant-east-asian:normal;font-variant-ligatures:normal;font-variant-numeric:normal;line-height:1.25" xml:space="preserve"><tspan x="133.32184" y="213.74561" font-family="Calibri" font-size="9.8778px" stroke-width=".26458" style="font-variant-caps:normal;font-variant-east-asian:normal;font-variant-ligatures:normal;font-variant-numeric:normal">RNIC</tspan></text>
  <path d="m72.443 133.1v67.637" fill="none" marker-end="url(#Arrow2Lend)" marker-start="url(#Arrow2Lstart)" stroke="#000" stroke-width=".27431"/>
  <path d="m180.21 133.71v67.637" fill="none" marker-end="url(#Arrow2Lend-2)" marker-start="url(#Arrow2Lstart-5)" stroke="#000" stroke-width=".27432"/>
  <g fill="#000000" font-family="Calibri" font-size="9.8778px" stroke-width=".070004">
   <text x="15.874999" y="242.66072" style="font-variant-caps:normal;font-variant-east-asian:normal;font-variant-ligatures:normal;font-variant-numeric:normal;line-height:1.25" xml:space="preserve"><tspan x="15.874999" y="242.66072" font-family="Calibri" font-size="9.8778px" stroke-width=".070004" style="font-variant-caps:normal;font-variant-east-asian:normal;font-variant-ligatures:normal;font-variant-numeric:normal">Traditional TCP/IP</tspan></text>
   <text x="102.06603" y="242.08676" style="font-variant-caps:normal;font-variant-east-asian:normal;font-variant-ligatures:normal;font-variant-numeric:normal;line-height:1.25" xml:space="preserve"><tspan x="102.06603" y="242.08676" font-family="Calibri" font-size="9.8778px" stroke-width=".070004" style="font-variant-caps:normal;font-variant-east-asian:normal;font-variant-ligatures:normal;font-variant-numeric:normal">vs</tspan></text>
   <text x="115.43391" y="242.94769" style="font-variant-caps:normal;font-variant-east-asian:normal;font-variant-ligatures:normal;font-variant-numeric:normal;line-height:1.25" xml:space="preserve"><tspan x="115.43391" y="242.94769" font-family="Calibri" font-size="9.8778px" stroke-width=".070004" style="font-variant-caps:normal;font-variant-east-asian:normal;font-variant-ligatures:normal;font-variant-numeric:normal">RDMA communication</tspan></text>
  </g>
 </g>
</svg>
